<svg width="336" height="378" viewBox="0 0 336 378" fill="none" xmlns="http://www.w3.org/2000/svg">
<path d="M197.2 28.0007C287.243 28.0007 188.002 70.4719 182.234 125.346C180.608 197.148 271.846 285.783 178.601 285.783C85.3562 285.783 4.1466 232.894 5.77241 161.092C7.39822 89.2895 103.955 28.0007 197.2 28.0007Z" fill="#F49896"/>
<path d="M138.8 348.783C48.7573 348.783 147.998 306.311 153.766 251.437C155.392 179.635 64.1535 91 157.399 91C250.644 91 331.853 143.89 330.228 215.692C328.602 287.494 232.045 348.783 138.8 348.783Z" fill="#89DEEB"/>
<path d="M157.399 91C170.16 91 182.695 91.9918 194.823 93.8857C188.369 103.702 183.398 114.272 182.234 125.346C180.609 197.148 271.846 285.782 178.601 285.782C165.84 285.782 153.305 284.79 141.177 282.896C147.63 273.079 152.602 262.511 153.766 251.437C155.392 179.635 64.1541 91 157.399 91Z" fill="#F8F9FA"/>
<path d="M235.051 65.3011C250.515 65.3011 263.051 52.7651 263.051 37.3011C263.051 21.8372 250.515 9.30115 235.051 9.30115C219.587 9.30115 207.051 21.8372 207.051 37.3011C207.051 52.7651 219.587 65.3011 235.051 65.3011Z" fill="#219352"/>
<path d="M100.949 365.825C116.413 365.825 128.949 353.289 128.949 337.825C128.949 322.361 116.413 309.825 100.949 309.825C85.4849 309.825 72.9489 322.361 72.9489 337.825C72.9489 353.289 85.4849 365.825 100.949 365.825Z" fill="#F7416B"/>
<path d="M194.861 108.059C202.593 108.059 208.861 101.791 208.861 94.0591C208.861 86.3271 202.593 80.0591 194.861 80.0591C187.129 80.0591 180.861 86.3271 180.861 94.0591C180.861 101.791 187.129 108.059 194.861 108.059Z" fill="#F21A14"/>
<path d="M115.368 115.059C126.966 115.059 136.368 105.657 136.368 94.0591C136.368 82.4611 126.966 73.0591 115.368 73.0591C103.77 73.0591 94.3679 82.4611 94.3679 94.0591C94.3679 105.657 103.77 115.059 115.368 115.059Z" fill="#8134F2"/>
<path d="M142.949 297.152C150.681 297.152 156.949 290.884 156.949 283.152C156.949 275.42 150.681 269.152 142.949 269.152C135.217 269.152 128.949 275.42 128.949 283.152C128.949 290.884 135.217 297.152 142.949 297.152Z" fill="#1F2977"/>
<path d="M220.635 304.152C232.233 304.152 241.635 294.75 241.635 283.152C241.635 271.554 232.233 262.152 220.635 262.152C209.038 262.152 199.635 271.554 199.635 283.152C199.635 294.75 209.038 304.152 220.635 304.152Z" fill="#F8B420"/>
</svg>
